<svg width="32" height="30" fill="none" xmlns="http://www.w3.org/2000/svg"><path d="M31.938 6.5v1.062a.531.531 0 01-.532.532h-1.593v.797c0 .44-.357.796-.797.796H2.984a.797.797 0 01-.796-.796v-.797H.593a.531.531 0 01-.531-.532V6.5a.531.531 0 01.328-.49L15.797.164a.53.53 0 01.406 0L31.61 6.01a.531.531 0 01.328.491zm-1.594 20.188H1.656c-.88 0-1.593.713-1.593 1.593v1.063a.531.531 0 00.53.531h30.813a.531.531 0 00.532-.531V28.28c0-.88-.714-1.593-1.594-1.593zM5.375 10.75V23.5h-2.39a.797.797 0 00-.797.797v1.328h27.625v-1.328a.797.797 0 00-.797-.797h-2.391V10.75h-4.25V23.5h-4.25V10.75h-4.25V23.5h-4.25V10.75h-4.25z" fill="#fff"/></svg>