<svg aria-hidden="true" style="position:absolute;width:0;height:0" xmlns="http://www.w3.org/2000/svg" overflow="hidden"><defs><symbol id="icon-arrow" viewBox="0 0 24 32"><path d="M21.028 17.594l-12.75 12.75a2.241 2.241 0 01-3.178 0l-2.119-2.119a2.241 2.241 0 010-3.178l9.037-9.038-9.037-9.037a2.241 2.241 0 010-3.178L5.09 1.656a2.241 2.241 0 013.178 0l12.75 12.75c.891.881.891 2.306.009 3.188z"/></symbol><symbol id="icon-mobile-logo" viewBox="0 0 41 32">
<path fill="#28a745" style="fill: var(--color2, #28a745)" d="M38.196 0.196c-3.861 0.221-11.532 1.019-16.268 3.924-0.328 0.2-0.513 0.557-0.513 0.929v25.676c0 0.815 0.89 1.331 1.64 0.952 4.872-2.457 11.921-3.128 15.405-3.31 1.19-0.062 2.115-1.018 2.115-2.164v-23.839c0-1.25-1.081-2.24-2.379-2.168zM18.649 4.121c-4.736-2.906-12.409-3.704-16.268-3.924-1.3-0.073-2.38 0.917-2.38 2.167v23.84c0 1.146 0.925 2.101 2.115 2.164 3.486 0.183 10.537 0.854 15.412 3.314 0.747 0.377 1.634-0.137 1.634-0.951v-25.694c0-0.002 0-0.005 0-0.007 0-0.383-0.203-0.72-0.507-0.907l-0.005-0.003z"></path>
</symbol><symbol id="icon-bank-icon" viewBox="0 0 34 32"><path fill="var(--color1, #fff)" d="M34.067 6.933v1.134a.566.566 0 01-.566.566h-1.7v.85a.85.85 0 01-.85.849H3.184a.85.85 0 01-.849-.849v-.85H.634a.566.566 0 01-.566-.566V6.933c0-.234.143-.435.346-.521l.004-.001L16.852.175a.56.56 0 01.437.002l-.004-.001 16.434 6.236c.207.087.35.289.35.523zm-1.7 21.534H1.766c-.939 0-1.699.761-1.699 1.699V31.3c0 .312.253.566.565.566H33.5a.566.566 0 00.566-.566v-1.135a1.7 1.7 0 00-1.7-1.699zm-26.634-17v13.6H3.184a.85.85 0 00-.85.85v1.417h29.467v-1.417a.85.85 0 00-.85-.85h-2.55v-13.6h-4.533v13.6h-4.533v-13.6h-4.533v13.6h-4.533v-13.6H5.736z"/></symbol><symbol id="icon-facebook" viewBox="0 0 32 32"><path d="M31.5 16.343c0-8.562-6.938-15.5-15.5-15.5S.5 7.781.5 16.343c0 7.75 5.625 14.188 13.062 15.312V20.843H9.624v-4.5h3.938v-3.375c0-3.876 2.313-6.063 5.812-6.063 1.751 0 3.501.313 3.501.313v3.813h-1.938c-1.937 0-2.562 1.187-2.562 2.437v2.875h4.312l-.688 4.5h-3.624v10.812C25.812 30.53 31.5 24.093 31.5 16.343z"/></symbol><symbol id="icon-linkedin" viewBox="0 0 32 32"><path d="M7.25 32V10.901H.688V32H7.25zM3.934 8.078c2.116 0 3.81-1.764 3.81-3.881 0-2.046-1.693-3.74-3.81-3.74-2.047 0-3.74 1.694-3.74 3.74 0 2.117 1.693 3.881 3.74 3.881zM31.736 32h.071V20.428c0-5.646-1.271-10.021-7.904-10.021-3.175 0-5.292 1.764-6.209 3.387h-.071v-2.893h-6.28V32h6.563V21.557c0-2.752.493-5.363 3.881-5.363 3.386 0 3.458 3.104 3.458 5.574V32h6.491z"/></symbol><symbol id="icon-portfolio-icon" viewBox="0 0 32 32"><path fill="var(--color1, #fff)" d="M21.858 6.167v-.075a5.9 5.9 0 10-11.799.079v-.004a5.901 5.901 0 0011.8.004v-.004zm-7.277 8.917c-3.646-2.232-9.553-2.845-12.524-3.015-.999-.056-1.832.704-1.832 1.666v13.692c0 .88.712 1.615 1.628 1.662 2.682.141 8.111.656 11.864 2.546.576.29 1.258-.104 1.258-.729V15.788v-.004a.816.816 0 00-.392-.698l-.004-.002zM29.86 12.07c-2.971.169-8.878.782-12.524 3.015a.832.832 0 00-.393.708V30.907c0 .626.684 1.021 1.261.73 3.752-1.888 9.177-2.404 11.86-2.544.917-.048 1.628-.782 1.628-1.663V13.736c0-.96-.833-1.721-1.832-1.665z"/></symbol><symbol id="icon-tax-icon" viewBox="0 0 32 32"><path fill="var(--color1, #fff)" d="M31.119 8.881l-2.882 2.882a.749.749 0 01-1.062 0l-6.938-6.937a.75.75 0 010-1.064l2.882-2.88c.544-.542 1.294-.877 2.122-.877s1.578.335 2.122.877l3.755 3.755c.545.542.882 1.293.882 2.122s-.337 1.58-.882 2.122zM17.763 6.237L1.35 22.65.026 30.243a1.502 1.502 0 001.747 1.736l-.009.001 7.593-1.331L25.77 14.236a.749.749 0 000-1.062l-6.936-6.938a.757.757 0 00-1.07 0zM7.755 21.244a.87.87 0 010-1.238l9.626-9.625a.869.869 0 011.236 0 .87.87 0 010 1.238l-9.625 9.625a.87.87 0 01-1.238 0zM5.499 26.5h3v2.268l-4.031.707-1.944-1.944.706-4.031h2.268v3z"/></symbol><symbol id="icon-twitter" viewBox="0 0 37 32"><path d="M33.469 8.284c1.458-1.094 2.771-2.406 3.792-3.938a14.363 14.363 0 01-4.375 1.167c1.604-.948 2.771-2.406 3.355-4.229a15.87 15.87 0 01-4.705 1.875l-.108.02A7.635 7.635 0 0025.856.774h-.045.001a7.655 7.655 0 00-7.655 7.655c0 .583.074 1.167.22 1.75A22.202 22.202 0 012.583 2.194l-.029-.036c-.657 1.094-1.021 2.406-1.021 3.865a7.536 7.536 0 003.426 6.345c-1.239-.074-2.479-.365-3.499-.948v.073c0 3.719 2.624 6.782 6.124 7.51-.582.146-1.312.292-1.968.292-.511 0-.948-.074-1.459-.146.949 3.062 3.792 5.25 7.147 5.323-2.625 2.043-5.906 3.282-9.479 3.282-.656 0-1.239-.074-1.823-.146 3.355 2.187 7.364 3.427 11.74 3.427 14.073 0 21.729-11.595 21.729-21.729V8.285z"/></symbol><symbol id="icon-youtube" viewBox="0 0 45 32">
<path d="M43.665 5.831c-0.486-1.944-2.027-3.484-3.89-3.97-3.483-0.972-17.256-0.972-17.256-0.972s-13.855 0-17.338 0.972c-1.862 0.486-3.403 2.027-3.889 3.97-0.972 3.401-0.972 10.694-0.972 10.694s0 7.211 0.972 10.695c0.486 1.944 2.025 3.401 3.889 3.889 3.484 0.891 17.338 0.891 17.338 0.891s13.773 0 17.256-0.891c1.864-0.486 3.404-1.944 3.89-3.889 0.972-3.484 0.972-10.695 0.972-10.695s0-7.291-0.972-10.694zM17.982 23.087v-13.125l11.505 6.562-11.505 6.562z"></path>
</symbol></defs>
</svg>
