<svg aria-hidden="true" style="position: absolute; width: 0; height: 0; overflow: hidden;" version="1.1" xmlns="http://www.w3.org/2000/svg" xmlns:xlink="http://www.w3.org/1999/xlink">
<defs>
<symbol id="icon-bank-icon" viewBox="0 0 34 32">
<path fill="#fff" style="fill: var(--color1, #fff)" d="M34.067 6.933v1.133c0 0 0 0.001 0 0.001 0 0.313-0.254 0.566-0.566 0.566-0 0-0.001 0-0.001 0h-1.699v0.85c0 0.469-0.381 0.849-0.85 0.849h-27.767c-0.469-0.001-0.848-0.38-0.849-0.849v-0.85h-1.701c0 0 0 0 0 0-0.313 0-0.566-0.254-0.566-0.566 0-0 0-0.001 0-0.001v0-1.133c0-0.234 0.143-0.435 0.346-0.521l0.004-0.001 16.434-6.236c0.064-0.027 0.138-0.043 0.217-0.043s0.153 0.016 0.22 0.045l-0.004-0.001 16.434 6.236c0.207 0.087 0.35 0.289 0.35 0.523 0 0 0 0 0 0v-0zM32.367 28.467h-30.601c-0.939 0-1.699 0.761-1.699 1.699v1.134c0 0 0 0 0 0 0 0.312 0.253 0.566 0.565 0.566h32.867c0 0 0.001 0 0.001 0 0.313 0 0.566-0.254 0.566-0.566 0 0 0 0 0 0v0-1.135c0-0.939-0.762-1.699-1.7-1.699zM5.733 11.467v13.6h-2.549c-0.47 0-0.85 0.381-0.85 0.85v1.417h29.467v-1.417c0-0.47-0.381-0.85-0.85-0.85v0h-2.55v-13.6h-4.533v13.6h-4.533v-13.6h-4.533v13.6h-4.533v-13.6h-4.533z"></path>
</symbol>
<symbol id="icon-facebook" viewBox="0 0 32 32">
<path fill="#fff" style="fill: var(--color1, #fff)" d="M31.5 16.343c0-8.562-6.938-15.5-15.5-15.5s-15.5 6.938-15.5 15.5c0 7.75 5.625 14.188 13.062 15.312v-10.812h-3.938v-4.5h3.938v-3.375c0-3.876 2.313-6.063 5.812-6.063 1.751 0 3.501 0.313 3.501 0.313v3.813h-1.938c-1.937 0-2.562 1.187-2.562 2.437v2.875h4.312l-0.688 4.5h-3.624v10.812c7.437-1.125 13.125-7.562 13.125-15.312z"></path>
</symbol>
<symbol id="icon-linkedin" viewBox="0 0 32 32">
<path fill="#fff" style="fill: var(--color1, #fff)" d="M7.25 32v-21.099h-6.562v21.099h6.562zM3.934 8.078c2.116 0 3.81-1.764 3.81-3.881 0-2.046-1.693-3.74-3.81-3.74-2.047 0-3.74 1.694-3.74 3.74 0 2.117 1.693 3.881 3.74 3.881zM31.736 32h0.071v-11.572c0-5.646-1.271-10.021-7.904-10.021-3.175 0-5.292 1.764-6.209 3.387h-0.071v-2.893h-6.28v21.099h6.563v-10.443c0-2.752 0.493-5.363 3.881-5.363 3.386 0 3.458 3.104 3.458 5.574v10.232h6.491z"></path>
</symbol>
<symbol id="icon-mobile-logo" viewBox="0 0 41 32">
<path fill="#28a745" style="fill: var(--color2, #28a745)" d="M38.196 0.196c-3.861 0.221-11.532 1.019-16.268 3.924-0.328 0.2-0.513 0.557-0.513 0.929v25.676c0 0.815 0.89 1.331 1.64 0.952 4.872-2.457 11.921-3.128 15.405-3.31 1.19-0.062 2.115-1.018 2.115-2.164v-23.839c0-1.25-1.081-2.24-2.379-2.168zM18.649 4.121c-4.736-2.906-12.409-3.704-16.268-3.924-1.3-0.073-2.38 0.917-2.38 2.167v23.84c0 1.146 0.925 2.101 2.115 2.164 3.486 0.183 10.537 0.854 15.412 3.314 0.747 0.377 1.634-0.137 1.634-0.951v-25.694c0-0.002 0-0.005 0-0.007 0-0.383-0.203-0.72-0.507-0.907l-0.005-0.003z"></path>
</symbol>
<symbol id="icon-portfolio-icon" viewBox="0 0 32 32">
<path fill="#fff" style="fill: var(--color1, #fff)" d="M21.858 6.167c0-0.022 0-0.048 0-0.075 0-3.259-2.642-5.9-5.9-5.9s-5.9 2.642-5.9 5.9c0 0.026 0 0.052 0.001 0.079l-0-0.004c0.042 3.226 2.667 5.826 5.9 5.826s5.858-2.599 5.9-5.822l0-0.004zM14.581 15.084c-3.646-2.232-9.553-2.845-12.524-3.015-0.999-0.056-1.832 0.704-1.832 1.666v13.692c0 0.88 0.712 1.615 1.628 1.662 2.682 0.141 8.111 0.656 11.864 2.546 0.576 0.29 1.258-0.104 1.258-0.729v-15.118c0-0.001 0-0.002 0-0.004 0-0.296-0.157-0.555-0.392-0.698l-0.004-0.002zM29.86 12.070c-2.971 0.169-8.878 0.782-12.524 3.015-0.238 0.149-0.393 0.41-0.393 0.708 0 0.003 0 0.005 0 0.008v-0 15.106c0 0.626 0.684 1.021 1.261 0.73 3.752-1.888 9.177-2.404 11.86-2.544 0.917-0.048 1.628-0.782 1.628-1.663v-13.694c0-0.96-0.833-1.721-1.832-1.665z"></path>
</symbol>
<symbol id="icon-tax-icon" viewBox="0 0 32 32">
<path fill="#fff" style="fill: var(--color1, #fff)" d="M31.119 8.881l-2.882 2.882c-0.136 0.136-0.324 0.22-0.531 0.22s-0.395-0.084-0.531-0.22l-6.938-6.937c-0.136-0.136-0.221-0.324-0.221-0.532s0.084-0.396 0.221-0.532v0l2.882-2.88c0.544-0.542 1.294-0.877 2.122-0.877s1.578 0.335 2.122 0.877l3.755 3.755c0.545 0.542 0.882 1.293 0.882 2.122s-0.337 1.58-0.882 2.122l-0 0zM17.763 6.237l-16.413 16.413-1.324 7.593c-0.014 0.077-0.022 0.167-0.022 0.258 0 0.83 0.673 1.502 1.502 1.502 0.091 0 0.18-0.008 0.267-0.024l-0.009 0.001 7.593-1.331 16.413-16.413c0.136-0.136 0.22-0.324 0.22-0.531s-0.084-0.395-0.22-0.531l-6.936-6.938c-0.137-0.136-0.326-0.22-0.535-0.22s-0.398 0.084-0.535 0.22l0-0zM7.755 21.244c-0.159-0.158-0.258-0.377-0.258-0.619s0.099-0.461 0.258-0.619l9.626-9.625c0.158-0.159 0.377-0.257 0.618-0.257s0.46 0.098 0.618 0.257l0 0c0.159 0.158 0.258 0.377 0.258 0.619s-0.099 0.461-0.258 0.619l-9.625 9.625c-0.158 0.159-0.377 0.258-0.619 0.258s-0.461-0.099-0.619-0.258l-0-0zM5.499 26.5h3v2.268l-4.031 0.707-1.944-1.944 0.706-4.031h2.268v3z"></path>
</symbol>
<symbol id="icon-twitter" viewBox="0 0 37 32">
<path fill="#fff" style="fill: var(--color1, #fff)" d="M33.469 8.284c1.458-1.094 2.771-2.406 3.792-3.938-1.312 0.583-2.844 1.021-4.375 1.167 1.604-0.948 2.771-2.406 3.355-4.229-1.386 0.837-2.994 1.492-4.705 1.875l-0.108 0.020c-1.399-1.483-3.378-2.405-5.572-2.405-0.015 0-0.030 0-0.045 0h0.002c-0 0-0.001 0-0.001 0-4.228 0-7.655 3.427-7.655 7.655v0c0 0.583 0.074 1.167 0.22 1.75-6.382-0.384-11.99-3.409-15.794-7.985l-0.029-0.036c-0.657 1.094-1.021 2.406-1.021 3.865 0 2.625 1.312 4.959 3.426 6.345-1.239-0.074-2.479-0.365-3.499-0.948v0.073c0 3.719 2.624 6.782 6.124 7.51-0.582 0.146-1.312 0.292-1.968 0.292-0.511 0-0.948-0.074-1.459-0.146 0.949 3.062 3.792 5.25 7.147 5.323-2.625 2.043-5.906 3.282-9.479 3.282-0.656 0-1.239-0.074-1.823-0.146 3.355 2.187 7.364 3.427 11.74 3.427 14.073 0 21.729-11.595 21.729-21.729v-1.021z"></path>
</symbol>
<symbol id="icon-youtube" viewBox="0 0 45 32">
<path fill="#fff" style="fill: var(--color1, #fff)" d="M43.665 5.831c-0.486-1.944-2.027-3.484-3.89-3.97-3.483-0.972-17.256-0.972-17.256-0.972s-13.855 0-17.338 0.972c-1.862 0.486-3.403 2.027-3.889 3.97-0.972 3.401-0.972 10.694-0.972 10.694s0 7.211 0.972 10.695c0.486 1.944 2.025 3.401 3.889 3.889 3.484 0.891 17.338 0.891 17.338 0.891s13.773 0 17.256-0.891c1.864-0.486 3.404-1.944 3.89-3.889 0.972-3.484 0.972-10.695 0.972-10.695s0-7.291-0.972-10.694zM17.982 23.087v-13.125l11.505 6.562-11.505 6.562z"></path>
</symbol>
</defs>
</svg>
